<svg width="19" height="17" viewBox="0 0 19 17" fill="none" xmlns="http://www.w3.org/2000/svg">
<path d="M2.35728 9.4286L10.2144 9.42931C10.5747 9.42938 10.9217 9.56558 11.1858 9.81063C11.4499 10.0557 11.6117 10.3915 11.6387 10.7507L11.643 10.8579V12.6429C11.6423 15.6429 8.58085 16.5715 6.28585 16.5715C4.03657 16.5715 1.05085 15.68 0.932282 12.82L0.928711 12.6429V10.8572C0.928711 10.1043 1.51157 9.48717 2.25014 9.43288L2.35728 9.4286ZM11.8001 9.42931L16.643 9.4286C17.3959 9.4286 18.013 10.0115 18.0673 10.75L18.0716 10.8572V12.2857C18.0709 14.9707 15.6216 15.8572 13.7859 15.8572C13.0301 15.8572 12.1723 15.7036 11.4223 15.3393C11.9594 14.7007 12.308 13.8879 12.3523 12.865L12.3573 12.6429V10.8579C12.3573 10.3565 12.1794 9.90074 11.8901 9.53645L11.8001 9.4286H16.643L11.8001 9.42931ZM6.28585 0.142883C6.80181 0.14293 7.3127 0.244601 7.78936 0.442092C8.26602 0.639582 8.69912 0.929024 9.06392 1.29389C9.42872 1.65876 9.71809 2.09191 9.91549 2.56861C10.1129 3.0453 10.2145 3.55622 10.2144 4.07217C10.2144 4.58812 10.1127 5.09902 9.91522 5.57568C9.71773 6.05234 9.42828 6.48544 9.06342 6.85024C8.69855 7.21504 8.2654 7.5044 7.7887 7.70181C7.31201 7.89921 6.80109 8.00079 6.28514 8.00074C5.24312 8.00065 4.24382 7.58662 3.50707 6.84973C2.77032 6.11285 2.35647 5.11347 2.35657 4.07145C2.35666 3.02944 2.77069 2.03014 3.50758 1.29339C4.24446 0.556637 5.24384 0.142789 6.28585 0.142883ZM14.143 1.57145C14.5651 1.57145 14.9831 1.65459 15.3731 1.81613C15.763 1.97766 16.1174 2.21442 16.4158 2.5129C16.7143 2.81137 16.9511 3.16571 17.1126 3.55569C17.2741 3.94566 17.3573 4.36363 17.3573 4.78574C17.3573 5.20785 17.2741 5.62582 17.1126 6.01579C16.9511 6.40577 16.7143 6.76011 16.4158 7.05858C16.1174 7.35706 15.763 7.59382 15.3731 7.75535C14.9831 7.91689 14.5651 8.00003 14.143 8.00003C13.2905 8.00003 12.4729 7.66138 11.8702 7.05858C11.2674 6.45579 10.9287 5.63822 10.9287 4.78574C10.9287 3.93326 11.2674 3.11569 11.8702 2.5129C12.4729 1.9101 13.2905 1.57145 14.143 1.57145Z" fill="url(#paint0_linear_1396_813)"/>
<defs>
<linearGradient id="paint0_linear_1396_813" x1="9.50014" y1="0.142883" x2="9.50014" y2="16.5715" gradientUnits="userSpaceOnUse">
<stop stop-color="#D9BF83"/>
<stop offset="1" stop-color="#634720"/>
</linearGradient>
</defs>
</svg>
