<svg width="22" height="22" viewBox="0 0 22 22" fill="none" xmlns="http://www.w3.org/2000/svg">
<g clip-path="url(#clip0_467_4404)">
<path d="M12.3486 17.9324L15.428 7.0149C15.4732 6.8545 15.4749 6.68493 15.4328 6.52367C15.3907 6.36241 15.3064 6.21528 15.1886 6.09743C15.0707 5.97958 14.9236 5.89528 14.7623 5.8532C14.6011 5.81112 14.4315 5.81279 14.2711 5.85803L3.35354 8.9373C3.16983 8.98911 3.00631 9.09575 2.88484 9.24298C2.76336 9.39021 2.68972 9.57101 2.67376 9.76121C2.6578 9.95142 2.70027 10.142 2.79551 10.3074C2.89074 10.4728 3.0342 10.6052 3.2067 10.6869L8.22288 13.063L10.5991 18.0793C10.6455 18.1777 10.7085 18.2673 10.7853 18.3443C10.9014 18.459 11.0453 18.5415 11.203 18.5837C11.3607 18.6258 11.5266 18.6261 11.6845 18.5845C11.8423 18.5429 11.9866 18.4609 12.103 18.3466C12.2195 18.2322 12.3041 18.0895 12.3486 17.9325L12.3486 17.9324ZM9.13998 12.8089L11.558 10.3909C11.6459 10.303 11.6953 10.1837 11.6953 10.0594C11.6953 9.93509 11.6459 9.81586 11.558 9.72795C11.4701 9.64004 11.3509 9.59066 11.2266 9.59066C11.1023 9.59066 10.983 9.64004 10.8951 9.72795L8.47706 12.146L3.60855 9.83949L14.5257 6.7603L11.4461 17.6775L9.13998 12.8089Z" fill="#FBFBFB"/>
</g>
<defs>
<clipPath id="clip0_467_4404">
<rect width="15" height="15" fill="white" transform="translate(0 10.6067) rotate(-45)"/>
</clipPath>
</defs>
</svg>
