<svg width="112" height="112" viewBox="0 0 112 112" fill="none" xmlns="http://www.w3.org/2000/svg">
<circle cx="56" cy="56" r="54" stroke="#FFBA0A" stroke-width="4"/>
<path d="M69.3332 42.6667H65.9998V41H70.1665C70.6332 41 70.9998 41.3667 70.9998 41.8334V45.1667C70.9998 45.6334 70.6332 46 70.1665 46H69.3332V47.6667H67.6665V44.3334H69.3332V42.6667ZM67.6665 51H69.3332V49.3334H67.6665V51ZM64.3332 41H62.6665V47.6667H64.3332V41ZM74.3332 61V66C74.3332 66.9167 73.5832 67.6667 72.6665 67.6667H70.9998V69.3334C70.9998 71.1834 69.5165 72.6667 67.6665 72.6667H44.3332C43.4491 72.6667 42.6013 72.3155 41.9761 71.6904C41.351 71.0653 40.9998 70.2174 40.9998 69.3334V67.6667H39.3332C38.4165 67.6667 37.6665 66.9167 37.6665 66V61C37.6665 60.0834 38.4165 59.3334 39.3332 59.3334H40.9998C40.9998 52.8834 46.2165 47.6667 52.6665 47.6667H54.3332V45.55C53.3332 44.9834 52.6665 43.9 52.6665 42.6667C52.6665 40.8334 54.1665 39.3334 55.9998 39.3334C57.8332 39.3334 59.3332 40.8334 59.3332 42.6667C59.3332 43.9 58.6665 44.9834 57.6665 45.55V47.6667H59.3332C59.8998 47.6667 60.4498 47.7167 60.9998 47.8V52.6667H68.8998C70.2706 54.6192 71.0041 56.9478 70.9998 59.3334H72.6665C73.5832 59.3334 74.3332 60.0834 74.3332 61ZM52.6665 61.8334C52.6665 60.7283 52.2275 59.6685 51.4461 58.8871C50.6647 58.1057 49.6049 57.6667 48.4998 57.6667C47.3948 57.6667 46.335 58.1057 45.5536 58.8871C44.7722 59.6685 44.3332 60.7283 44.3332 61.8334C44.3332 62.9384 44.7722 63.9983 45.5536 64.7797C46.335 65.5611 47.3948 66 48.4998 66C49.6049 66 50.6647 65.5611 51.4461 64.7797C52.2275 63.9983 52.6665 62.9384 52.6665 61.8334ZM67.6665 61.8334C67.6665 60.7283 67.2275 59.6685 66.4461 58.8871C65.6647 58.1057 64.6049 57.6667 63.4998 57.6667C62.3948 57.6667 61.335 58.1057 60.5536 58.8871C59.7722 59.6685 59.3332 60.7283 59.3332 61.8334C59.3332 62.9384 59.7722 63.9983 60.5536 64.7797C61.335 65.5611 62.3948 66 63.4998 66C64.6049 66 65.6647 65.5611 66.4461 64.7797C67.2275 63.9983 67.6665 62.9384 67.6665 61.8334ZM64.3332 49.3334H62.6665V51H64.3332V49.3334Z" fill="#FFBA0A"/>
</svg>
