<svg width="17" height="18" viewBox="0 0 17 18" fill="none" xmlns="http://www.w3.org/2000/svg">
<path d="M10.0171 17.3333H6.98381C6.79375 17.3333 6.60939 17.2684 6.46131 17.1493C6.31322 17.0301 6.21031 16.8639 6.16964 16.6783L5.83047 15.1083C5.37802 14.91 4.949 14.6621 4.55131 14.3691L3.02047 14.8566C2.83928 14.9144 2.64376 14.9085 2.46641 14.8398C2.28905 14.7711 2.14052 14.6439 2.04547 14.4791L0.525473 11.8533C0.431428 11.6884 0.396125 11.4965 0.425342 11.3089C0.454558 11.1214 0.546564 10.9493 0.686307 10.8208L1.87381 9.73746C1.8198 9.24672 1.8198 8.75153 1.87381 8.26079L0.686307 7.17996C0.546366 7.05144 0.454235 6.87919 0.425014 6.69145C0.395793 6.5037 0.431214 6.3116 0.525473 6.14663L2.04214 3.51913C2.13718 3.35439 2.28572 3.22712 2.46307 3.15845C2.64043 3.08978 2.83594 3.08384 3.01714 3.14163L4.54797 3.62913C4.75131 3.47913 4.96297 3.33913 5.18131 3.21246C5.39214 3.09413 5.60881 2.98663 5.83047 2.89079L6.17047 1.32246C6.21095 1.13679 6.31367 0.970532 6.4616 0.85125C6.60952 0.731968 6.79378 0.666826 6.98381 0.666626H10.0171C10.2072 0.666826 10.3914 0.731968 10.5394 0.85125C10.6873 0.970532 10.79 1.13679 10.8305 1.32246L11.1738 2.89163C11.4071 2.99496 11.6355 3.11079 11.8563 3.23996C12.0621 3.35913 12.2613 3.48996 12.453 3.63079L13.9846 3.14329C14.1657 3.08572 14.361 3.09177 14.5382 3.16043C14.7154 3.22909 14.8638 3.35623 14.9588 3.52079L16.4755 6.14829C16.6688 6.48746 16.6021 6.91663 16.3146 7.18079L15.1271 8.26413C15.1811 8.75487 15.1811 9.25005 15.1271 9.74079L16.3146 10.8241C16.6021 11.0891 16.6688 11.5175 16.4755 11.8566L14.9588 14.4841C14.8638 14.6489 14.7152 14.7761 14.5379 14.8448C14.3605 14.9135 14.165 14.9194 13.9838 14.8616L12.453 14.3741C12.0556 14.6669 11.6268 14.9146 11.1746 15.1125L10.8305 16.6783C10.7898 16.8638 10.687 17.0299 10.5391 17.149C10.3912 17.2681 10.2071 17.3331 10.0171 17.3333ZM8.49714 5.66663C7.61309 5.66663 6.76524 6.01782 6.14012 6.64294C5.515 7.26806 5.16381 8.1159 5.16381 8.99996C5.16381 9.88402 5.515 10.7319 6.14012 11.357C6.76524 11.9821 7.61309 12.3333 8.49714 12.3333C9.3812 12.3333 10.229 11.9821 10.8542 11.357C11.4793 10.7319 11.8305 9.88402 11.8305 8.99996C11.8305 8.1159 11.4793 7.26806 10.8542 6.64294C10.229 6.01782 9.3812 5.66663 8.49714 5.66663Z" fill="url(#paint0_linear_1693_1037)"/>
<defs>
<linearGradient id="paint0_linear_1693_1037" x1="8.50022" y1="0.666626" x2="8.50022" y2="17.3333" gradientUnits="userSpaceOnUse">
<stop stop-color="#D9BF83"/>
<stop offset="1" stop-color="#634720"/>
</linearGradient>
</defs>
</svg>
